M48
;GenerationSoftware,Autodesk,EAGLE,9.2.2*%
;CreationDate,2019-03-13T20:31:59Z*%
FMAT,2
ICI,OFF
METRIC,TZ,000.000
T4C0.700
T3C0.813
T2C1.016
T1C1.524
%
G90
M71
T1
X32240Y5677
X32240Y1867
X32240Y-1968
T2
X6387Y-17677
X41202Y15742
X64710Y-3327
X64710Y-5867
X64710Y-8407
X64710Y-10947
X64710Y-13487
X64710Y-16027
X48822Y15742
X46282Y15742
X43742Y15742
X38662Y15742
T3
X44215Y-9540
X69370Y-17662
X74758Y-4661
X69370Y-10049
X11962Y7002
X41206Y-1939
X41206Y-9559
X30655Y14060
X28115Y14060
X34832Y-13851
X37372Y-13851
X47482Y-13851
X50022Y-13851
X53832Y-13851
X56372Y-13851
X41182Y-13851
X43722Y-13851
X44215Y-1920
X72786Y10762
X70246Y10762
X57546Y10762
X55006Y10762
X67706Y10762
X65166Y10762
X60086Y10762
X62626Y10762
X52466Y10762
X49926Y10762
X47386Y10762
X44846Y10762
X42306Y10762
X39766Y10762
X39766Y3142
X42306Y3142
X44846Y3142
X47386Y3142
X49926Y3142
X52466Y3142
X55006Y3142
X57546Y3142
X60086Y3142
X62626Y3142
X65166Y3142
X67706Y3142
X70246Y3142
X72786Y3142
X74675Y-975
X69287Y-6363
X38081Y-9537
X38081Y-1917
X47211Y-1922
X47211Y-9542
X28079Y10542
X30619Y10542
X65195Y14652
X6882Y7002
X9422Y7002
X14502Y14622
X11962Y14622
X14502Y7002
X17042Y14622
X17042Y7002
X9422Y14622
X6882Y14622
X24434Y5797
X20624Y12397
X11957Y18539
X14429Y18475
X30207Y-17299
X30207Y-9679
X74758Y-8467
X69370Y-13855
X74758Y-12274
T4
X43742Y18774
X58710Y-18194
X55032Y13613
X59613Y-15613
X14434Y367
X12434Y367
X10434Y367
X24434Y-13633
X34323Y8774
X22434Y-13633
X20434Y-13633
X18434Y-13633
X16434Y-13633
X14434Y-13633
X12434Y-13633
X10434Y-13633
X25239Y-1698
X25239Y-3698
X25239Y-5698
X25239Y-7698
X10452Y-17677
X14387Y-17677
X31613Y19097
X13613Y3742
X24645Y3677
X10452Y3742
X18387Y3742
X22452Y3677
X27613Y-15032
X36774Y12774
X36774Y5548
X60645Y15677
X52387Y15742
X59613Y-6194
X25239Y-9698
X25239Y-11698
X24434Y367
X22434Y367
X20434Y367
X18434Y367
X16434Y367
M30