G04 EAGLE Gerber RS-274X export*
G75*
%MOMM*%
%FSLAX34Y34*%
%LPD*%
%INBottom copper*%
%IPPOS*%
%AMOC8*
5,1,8,0,0,1.08239X$1,22.5*%
G01*
%ADD10C,0.762000*%
%ADD11P,1.429621X8X292.500000*%
%ADD12P,1.429621X8X202.500000*%
%ADD13C,1.320800*%
%ADD14P,1.429621X8X247.500000*%
%ADD15P,1.429621X8X112.500000*%
%ADD16C,1.208000*%
%ADD17P,1.429621X8X22.500000*%
%ADD18P,1.732040X8X22.500000*%
%ADD19P,1.429621X8X142.500000*%
%ADD20P,1.732040X8X292.500000*%
%ADD21C,2.286000*%
%ADD22C,1.524000*%
%ADD23P,1.649562X8X22.500000*%
%ADD24R,1.676400X1.676400*%


D10*
X1016Y-206126D02*
X786511Y-206126D01*
X787156Y251348D01*
X1661Y251993D01*
X1016Y-206126D01*
D11*
X412057Y-19385D03*
X412057Y-95585D03*
D12*
X306548Y140597D03*
X281148Y140597D03*
D13*
X348318Y-131910D02*
X348318Y-145118D01*
X373718Y-145118D02*
X373718Y-131910D01*
X474818Y-131910D02*
X474818Y-145118D01*
X500218Y-145118D02*
X500218Y-131910D01*
X538318Y-131910D02*
X538318Y-145118D01*
X563718Y-145118D02*
X563718Y-131910D01*
X411818Y-131910D02*
X411818Y-145118D01*
X437218Y-145118D02*
X437218Y-131910D01*
D11*
X442154Y-19195D03*
X442154Y-95395D03*
D13*
X727858Y101018D02*
X727858Y114226D01*
X702458Y114226D02*
X702458Y101018D01*
X575458Y101018D02*
X575458Y114226D01*
X550058Y114226D02*
X550058Y101018D01*
X677058Y101018D02*
X677058Y114226D01*
X651658Y114226D02*
X651658Y101018D01*
X600858Y101018D02*
X600858Y114226D01*
X626258Y114226D02*
X626258Y101018D01*
X524658Y101018D02*
X524658Y114226D01*
X499258Y114226D02*
X499258Y101018D01*
X473858Y101018D02*
X473858Y114226D01*
X448458Y114226D02*
X448458Y101018D01*
X423058Y101018D02*
X423058Y114226D01*
X397658Y114226D02*
X397658Y101018D01*
X397658Y38026D02*
X397658Y24818D01*
X423058Y24818D02*
X423058Y38026D01*
X448458Y38026D02*
X448458Y24818D01*
X473858Y24818D02*
X473858Y38026D01*
X499258Y38026D02*
X499258Y24818D01*
X524658Y24818D02*
X524658Y38026D01*
X550058Y38026D02*
X550058Y24818D01*
X575458Y24818D02*
X575458Y38026D01*
X600858Y38026D02*
X600858Y24818D01*
X626258Y24818D02*
X626258Y38026D01*
X651658Y38026D02*
X651658Y24818D01*
X677058Y24818D02*
X677058Y38026D01*
X702458Y38026D02*
X702458Y24818D01*
X727858Y24818D02*
X727858Y38026D01*
D14*
X746747Y-9749D03*
X692865Y-63631D03*
D15*
X380815Y-95375D03*
X380815Y-19175D03*
D16*
X244345Y3671D02*
X244345Y15751D01*
X224345Y15751D02*
X224345Y3671D01*
X204345Y3671D02*
X204345Y15751D01*
X184345Y15751D02*
X184345Y3671D01*
X164345Y3671D02*
X164345Y15751D01*
X144345Y15751D02*
X144345Y3671D01*
X124345Y3671D02*
X124345Y15751D01*
X104345Y15751D02*
X104345Y3671D01*
X244345Y-136329D02*
X244345Y-148409D01*
X224345Y-148409D02*
X224345Y-136329D01*
X204345Y-136329D02*
X204345Y-148409D01*
X184345Y-148409D02*
X184345Y-136329D01*
X164345Y-136329D02*
X164345Y-148409D01*
X144345Y-148409D02*
X144345Y-136329D01*
X124345Y-136329D02*
X124345Y-148409D01*
X104345Y-148409D02*
X104345Y-136329D01*
X252395Y-16979D02*
X264475Y-16979D01*
X264475Y-36979D02*
X252395Y-36979D01*
X252395Y-56979D02*
X264475Y-56979D01*
X264475Y-76979D02*
X252395Y-76979D01*
X252395Y-96979D02*
X264475Y-96979D01*
X264475Y-116979D02*
X252395Y-116979D01*
D11*
X472105Y-19215D03*
X472105Y-95415D03*
D17*
X280792Y105416D03*
X306192Y105416D03*
D18*
X651954Y146519D03*
D13*
X68820Y76625D02*
X68820Y63417D01*
X94220Y63417D02*
X94220Y76625D01*
X145020Y139617D02*
X145020Y152825D01*
X119620Y152825D02*
X119620Y139617D01*
X119620Y76625D02*
X119620Y63417D01*
X145020Y63417D02*
X145020Y76625D01*
X170420Y139617D02*
X170420Y152825D01*
X170420Y76625D02*
X170420Y63417D01*
X94220Y139617D02*
X94220Y152825D01*
X68820Y152825D02*
X68820Y139617D01*
D19*
X244345Y57975D03*
X206245Y123966D03*
D20*
X119570Y185391D03*
X144295Y184745D03*
D15*
X302074Y-172992D03*
X302074Y-96792D03*
D21*
X310967Y-19680D02*
X333827Y-19680D01*
X333827Y18674D02*
X310967Y18674D01*
X310967Y56774D02*
X333827Y56774D01*
D22*
X386618Y149799D02*
X386618Y165039D01*
X412018Y165039D02*
X412018Y149799D01*
X437418Y149799D02*
X437418Y165039D01*
X462818Y165039D02*
X462818Y149799D01*
X488218Y149799D02*
X488218Y165039D01*
X639476Y-160274D02*
X654716Y-160274D01*
X654716Y-134874D02*
X639476Y-134874D01*
X639476Y-109474D02*
X654716Y-109474D01*
X654716Y-84074D02*
X639476Y-84074D01*
X639476Y-58674D02*
X654716Y-58674D01*
X654716Y-33274D02*
X639476Y-33274D01*
D14*
X747584Y-84672D03*
X693703Y-138553D03*
X747585Y-122736D03*
X693703Y-176618D03*
X747585Y-46607D03*
X693703Y-100489D03*
D23*
X63871Y-176774D03*
D10*
X348318Y-127872D02*
X380815Y-95375D01*
X348318Y-127872D02*
X348318Y-138514D01*
X442154Y-95395D02*
X474818Y-128059D01*
X474818Y-138514D01*
X472105Y-95415D02*
X495219Y-95415D01*
X538318Y-138514D01*
X412057Y-138275D02*
X412057Y-95585D01*
X412057Y-138275D02*
X411818Y-138514D01*
D24*
X246451Y36774D03*
D10*
X244345Y57975D02*
X244345Y122106D01*
X220230Y146221D02*
X170420Y146221D01*
X220230Y146221D02*
X244345Y122106D01*
X244345Y57975D02*
X244345Y38880D01*
X246451Y36774D01*
X244345Y122106D02*
X262836Y140597D01*
X281148Y140597D01*
X280792Y140241D02*
X280792Y105416D01*
X280792Y140241D02*
X281148Y140597D01*
X261935Y36774D02*
X246451Y36774D01*
X261935Y36774D02*
X277419Y21290D01*
X277419Y-6452D01*
X290647Y-19680D02*
X322397Y-19680D01*
X290647Y-19680D02*
X277419Y-6452D01*
D24*
X437418Y187742D03*
D10*
X437418Y157419D01*
X373718Y-138514D02*
X373718Y-156299D01*
X391612Y-174193D01*
X420644Y-174193D01*
X482580Y-174193D01*
X544515Y-174193D01*
X563718Y-154990D02*
X563718Y-138514D01*
X563718Y-154990D02*
X544515Y-174193D01*
X500218Y-156555D02*
X500218Y-138514D01*
X500218Y-156555D02*
X482580Y-174193D01*
X437218Y-157619D02*
X437218Y-138514D01*
X437218Y-157619D02*
X420644Y-174193D01*
D24*
X587096Y-181935D03*
D10*
X579354Y-174193D02*
X544515Y-174193D01*
X579354Y-174193D02*
X587096Y-181935D01*
X647096Y-33274D02*
X662208Y-33274D01*
X702579Y7097D01*
X702579Y31301D01*
X702458Y31422D01*
D24*
X550321Y136129D03*
D10*
X550058Y135865D01*
X550058Y107622D01*
X336128Y56774D02*
X322397Y56774D01*
X380815Y12088D02*
X380815Y-19175D01*
X380815Y12088D02*
X336128Y56774D01*
X322397Y124748D02*
X306548Y140597D01*
X322397Y124748D02*
X322397Y56774D01*
X647096Y-58674D02*
X665195Y-58674D01*
X727858Y3989D02*
X727858Y31422D01*
X727858Y3989D02*
X665195Y-58674D01*
X727858Y31422D02*
X727858Y40528D01*
X706450Y61935D01*
X458064Y61935D01*
X340694Y106451D02*
X322397Y124748D01*
X368386Y106451D02*
X389313Y85524D01*
X368386Y106451D02*
X340694Y106451D01*
X665195Y-58674D02*
X669663Y-63142D01*
X462818Y146045D02*
X462818Y157419D01*
X462818Y146045D02*
X449031Y132258D01*
X430967Y132258D01*
X423058Y124349D01*
X434475Y85524D02*
X458064Y61935D01*
X434475Y85524D02*
X389313Y85524D01*
X423058Y107622D02*
X423058Y124349D01*
X423058Y107622D02*
X423058Y96941D01*
X434475Y85524D01*
X669663Y-63142D02*
X692376Y-63142D01*
X692865Y-63631D01*
X730561Y-63631D01*
X747585Y-46607D01*
X747585Y-84672D01*
X747584Y-84672D01*
X747584Y-122736D01*
X747585Y-122736D01*
X473858Y12509D02*
X442154Y-19195D01*
X473858Y12509D02*
X473858Y31422D01*
X499258Y7937D02*
X472105Y-19215D01*
X499258Y7937D02*
X499258Y31422D01*
X448458Y17016D02*
X412057Y-19385D01*
X448458Y17016D02*
X448458Y31422D01*
D24*
X596128Y-156129D03*
X596128Y-61935D03*
D10*
X626258Y20455D02*
X626258Y31422D01*
X626258Y20455D02*
X596128Y-9675D01*
X596128Y-61935D01*
X596128Y-156129D02*
X600273Y-160274D01*
X647096Y-160274D01*
X550058Y-86833D02*
X550058Y31422D01*
X550058Y-86833D02*
X598708Y-135484D01*
X646486Y-135484D01*
X647096Y-134874D01*
X656773Y-134874D01*
X693703Y-176618D01*
X647096Y-109474D02*
X605602Y-109474D01*
X574838Y-78710D01*
X574838Y30802D02*
X575458Y31422D01*
X574838Y30802D02*
X574838Y-78710D01*
X647096Y-109474D02*
X665566Y-109474D01*
X693703Y-137611D01*
X693703Y-138553D01*
X647096Y-84074D02*
X633105Y-84074D01*
X619354Y-70322D01*
X619354Y-16129D01*
X634837Y-645D01*
X668386Y-645D01*
X677418Y8387D01*
X677418Y31062D01*
X677058Y31422D01*
X677288Y-84074D02*
X693703Y-100489D01*
X677288Y-84074D02*
X647096Y-84074D01*
X760486Y74994D02*
X727858Y107622D01*
D24*
X523870Y157419D03*
X606450Y156774D03*
D10*
X488219Y157419D02*
X488218Y157419D01*
X488219Y157419D02*
X523870Y157419D01*
X606450Y156774D02*
X615483Y165806D01*
X727858Y131495D02*
X727858Y107622D01*
X693547Y165806D02*
X615483Y165806D01*
X693547Y165806D02*
X727858Y131495D01*
X760486Y3991D02*
X746747Y-9749D01*
X760486Y3991D02*
X760486Y74994D01*
X412257Y137419D02*
X397658Y122820D01*
X412257Y137419D02*
X412257Y157180D01*
X412018Y157419D01*
X397658Y122820D02*
X397658Y107622D01*
D24*
X367741Y55484D03*
X367741Y127742D03*
D10*
X386618Y146619D01*
X386618Y157419D01*
X373597Y55484D02*
X397658Y31422D01*
X373597Y55484D02*
X367741Y55484D01*
D24*
X276128Y-150322D03*
D10*
X358709Y-45666D02*
X358709Y-645D01*
X339390Y18674D01*
X322397Y18674D01*
X307582Y-96792D02*
X302074Y-96792D01*
X307582Y-96792D02*
X358709Y-45666D01*
X306192Y95225D02*
X306192Y105416D01*
X306192Y95225D02*
X279999Y69032D01*
X279999Y43871D01*
X305196Y18674D02*
X322397Y18674D01*
X305196Y18674D02*
X279999Y43871D01*
X302074Y-124377D02*
X276128Y-150322D01*
X302074Y-124377D02*
X302074Y-96792D01*
D24*
X224516Y36774D03*
D10*
X224516Y105695D02*
X206245Y123966D01*
X224516Y105695D02*
X224516Y36774D01*
D24*
X183871Y37419D03*
D10*
X183871Y56570D01*
X170420Y70021D01*
D24*
X104516Y37419D03*
D10*
X68820Y66664D02*
X68820Y70021D01*
X119620Y70021D02*
X119620Y52523D01*
X104516Y37419D01*
X98064Y37419D01*
X68820Y66664D01*
D24*
X136129Y37419D03*
D10*
X145020Y46310D02*
X145020Y70021D01*
X145020Y46310D02*
X136129Y37419D01*
X94220Y70021D02*
X94220Y84542D01*
X107097Y97419D01*
X136129Y97419D01*
X145161Y88387D01*
X145020Y88246D01*
X145020Y70021D01*
X119620Y185341D02*
X119570Y185391D01*
X119620Y185341D02*
X119620Y146221D01*
X145020Y146221D02*
X145020Y184020D01*
X144295Y184745D01*
X94220Y196155D02*
X94220Y146221D01*
X94220Y196155D02*
X108387Y210322D01*
D24*
X316128Y190967D03*
X343225Y87742D03*
D10*
X296774Y210322D02*
X108387Y210322D01*
X296774Y210322D02*
X316128Y190967D01*
X343225Y87742D02*
X365806Y87742D01*
X390967Y62581D02*
X411612Y62581D01*
X423058Y51135D01*
X423058Y31422D01*
X390967Y62581D02*
X365806Y87742D01*
X68820Y146221D02*
X68820Y194626D01*
X101290Y227096D01*
X499999Y227096D01*
X600858Y126237D02*
X600858Y107622D01*
X600858Y126237D02*
X499999Y227096D01*
X651658Y146223D02*
X651658Y107622D01*
X651658Y146223D02*
X651954Y146519D01*
D24*
X143871Y-176774D03*
D10*
X298292Y-176774D01*
X302074Y-172992D01*
D24*
X104516Y-176774D03*
D10*
X63871Y-176774D01*
M02*
